<?xml version="1.0" encoding="UTF-8" standalone="no"?>
<!-- Created with Inkscape (http://www.inkscape.org/) -->

<svg
   xmlns:dc="http://purl.org/dc/elements/1.1/"
   xmlns:cc="http://creativecommons.org/ns#"
   xmlns:rdf="http://www.w3.org/1999/02/22-rdf-syntax-ns#"
   xmlns:svg="http://www.w3.org/2000/svg"
   xmlns="http://www.w3.org/2000/svg"
   xmlns:sodipodi="http://sodipodi.sourceforge.net/DTD/sodipodi-0.dtd"
   xmlns:inkscape="http://www.inkscape.org/namespaces/inkscape"
   width="1026"
   height="1026"
   id="svg2"
   sodipodi:version="0.32"
   inkscape:version="0.47 r22583"
   sodipodi:docname="IHM rope border layers.svg"
   inkscape:output_extension="org.inkscape.output.svg.inkscape"
   version="1.0">
  <defs
     id="defs4">
    <inkscape:perspective
       sodipodi:type="inkscape:persp3d"
       inkscape:vp_x="0 : 526.18109 : 1"
       inkscape:vp_y="0 : 1000 : 0"
       inkscape:vp_z="744.09448 : 526.18109 : 1"
       inkscape:persp3d-origin="372.04724 : 350.78739 : 1"
       id="perspective10" />
    <inkscape:perspective
       id="perspective3890"
       inkscape:persp3d-origin="0.5 : 0.33333333 : 1"
       inkscape:vp_z="1 : 0.5 : 1"
       inkscape:vp_y="0 : 1000 : 0"
       inkscape:vp_x="0 : 0.5 : 1"
       sodipodi:type="inkscape:persp3d" />
  </defs>
  <sodipodi:namedview
     id="base"
     pagecolor="#ffffff"
     bordercolor="#666666"
     borderopacity="1.0"
     gridtolerance="10000"
     guidetolerance="10"
     objecttolerance="10"
     inkscape:pageopacity="0.0"
     inkscape:pageshadow="2"
     inkscape:zoom="1.4951106"
     inkscape:cx="601.95663"
     inkscape:cy="622.85714"
     inkscape:document-units="in"
     inkscape:current-layer="layer2"
     showgrid="false"
     units="in"
     inkscape:window-width="1920"
     inkscape:window-height="1005"
     inkscape:window-x="-9"
     inkscape:window-y="-9"
     inkscape:window-maximized="0" />
  <metadata
     id="metadata7">
    <rdf:RDF>
      <cc:Work
         rdf:about="">
        <dc:format>image/svg+xml</dc:format>
        <dc:type
           rdf:resource="http://purl.org/dc/dcmitype/StillImage" />
        <dc:creator>
          <cc:Agent>
            <dc:title>HeatherM</dc:title>
          </cc:Agent>
        </dc:creator>
        <dc:title></dc:title>
      </cc:Work>
    </rdf:RDF>
  </metadata>
  <g
     inkscape:label="base"
     inkscape:groupmode="layer"
     id="layer1">
    <path
       style="font-size:medium;font-style:normal;font-variant:normal;font-weight:normal;font-stretch:normal;text-indent:0;text-align:start;text-decoration:none;line-height:normal;letter-spacing:normal;word-spacing:normal;text-transform:none;direction:ltr;block-progression:tb;writing-mode:lr-tb;text-anchor:start;color:#000000;fill:#3b3b3b;fill-opacity:1;stroke:none;stroke-width:6.27243853;marker:none;visibility:visible;display:inline;overflow:visible;enable-background:accumulate;font-family:Bitstream Vera Sans;-inkscape-font-specification:Bitstream Vera Sans"
       d="m 4.7783183,376.78349 c -7.45736,0.30723 -13.00064,8.24757 -11.09375,15.53125 0.48419,10.07153 -0.93963,20.6015 0.65625,30.40625 4.67172,8.82356 16.7250897,7.64487 24.3124997,3.71875 3.48117,-0.64263 6.38625,-6.46196 9.40625,-2.9375 10.6811,8.66002 26.83098,7.6314 36.8125,-1.59375 10.04368,9.33897 26.55624,10.25766 37.218752,1.3125 2.95589,-2.664 5.9247,3.02182 9.375,3.625 10.19027,5.16332 22.88468,2.52613 31.28125,-4.9375 10.36097,9.66802 27.34895,10.165 38.00677,0.69685 2.85532,-0.61754 5.82611,3.74263 9.21198,4.5219 10.08391,4.8161 22.42657,2.0687 30.65624,-5.21875 10.36097,9.66802 27.34895,10.165 38.00677,0.69685 2.85532,-0.61754 5.82611,3.74263 9.21198,4.5219 10.08391,4.8161 22.42657,2.0687 30.65625,-5.21875 10.36097,9.66802 27.34895,10.165 38.00677,0.69685 2.85532,-0.61754 5.82611,3.74263 9.21198,4.5219 10.08391,4.8161 22.42657,2.0687 30.65625,-5.21875 10.36097,9.66802 27.34895,10.165 38.00678,0.69685 2.85532,-0.61754 5.82611,3.74263 9.21198,4.5219 10.08391,4.8161 22.42657,2.0687 30.65625,-5.21875 10.11745,9.39029 26.56557,10.22397 37.1875,1.3125 2.78057,-2.71957 5.59712,2.69639 8.78125,3.34375 10.2868,5.43372 23.25224,3.07495 31.84375,-4.625 10.14119,9.31182 26.57894,10.23347 37.3125,1.28125 2.95206,-2.66331 5.927,3.02175 9.375,3.625 10.28071,5.21636 23.15179,2.45426 31.59375,-5.03125 9.15633,8.77369 24.17321,10.37731 34.5,2.78125 2.3178,-2.09309 4.40097,-3.48497 6.6875,-0.625 10.68488,8.20653 26.51879,6.98524 36.34375,-2.0625 10.11028,9.3496 26.56472,10.25114 37.25,1.3125 2.95206,-2.66331 5.927,3.02175 9.375,3.625 10.17434,5.14882 22.88325,2.5514 31.25,-4.9375 10.13271,9.36099 26.57087,10.24296 37.25,1.3125 2.95206,-2.66331 5.927,3.02175 9.375,3.625 10.17434,5.14882 22.88325,2.5514 31.25,-4.9375 10.13271,9.36099 26.57087,10.24296 37.25,1.3125 2.95206,-2.66331 5.927,3.02175 9.375,3.625 10.22913,5.15622 22.92248,2.54584 31.3125,-4.90625 10.19257,9.39272 26.51835,10.14392 37.21875,1.3125 2.94354,-2.75828 5.949,2.97227 9.375,3.59375 10.16008,5.15104 22.87889,2.53978 31.28128,-4.9375 7.6288,6.27797 20.1767,11.12661 28.875,4.25 7.422,-6.79231 2.8882,-18.02051 4.125,-26.75 0.3701,-7.13012 1.1888,-16.06411 -5.875,-20.28125 -8.845,-5.21891 -19.9976,-0.96227 -27.125,5.25 -10.14586,-9.36679 -26.58223,-10.2404 -37.21878,-1.3125 -2.78432,2.72005 -5.59483,-2.69634 -8.78125,-3.34375 -10.30214,-5.44789 -23.25444,-3.05084 -31.875,4.625 -10.36725,-9.61686 -27.35786,-10.1578 -38.06927,-0.66561 -2.85532,0.61754 -5.82611,-3.74263 -9.21198,-4.52189 -10.08394,-4.81613 -22.42656,-2.0687 -30.65625,5.21875 -10.36097,-9.66801 -27.34896,-10.16502 -38.00677,-0.69686 -2.85532,0.61754 -5.82611,-3.74263 -9.21198,-4.52189 -10.08394,-4.81613 -22.42656,-2.0687 -30.65625,5.21875 -10.36097,-9.66801 -27.34896,-10.16502 -38.00677,-0.69686 -2.85532,0.61754 -5.82611,-3.74263 -9.21198,-4.52189 -10.09439,-4.81626 -22.44226,-2.06542 -30.65625,5.21875 -10.22691,-9.49967 -26.8175,-10.13202 -37.5625,-1.25 -2.72345,2.88092 -5.41596,-2.50577 -8.53125,-3.21875 -10.08455,-5.84775 -23.12493,-3.00275 -31.34375,4.65625 -10.18745,-9.4739 -26.84292,-10.54893 -37.65625,-1.5 -2.95589,2.66399 -5.9247,-3.02183 -9.375,-3.625 -10.24537,-5.17106 -22.92366,-2.52046 -31.34375,4.90625 -10.16462,-9.41534 -26.50152,-10.12788 -37.1875,-1.3125 -2.94712,2.75886 -5.94693,-2.97229 -9.375,-3.59375 -10.14447,-5.13688 -22.87728,-2.56486 -31.25,4.9375 -10.13272,-9.36098 -26.57087,-10.24299 -37.25,-1.3125 -2.95206,2.66331 -5.92701,-3.02176 -9.37501,-3.625 -10.17436,-5.14885 -22.88324,-2.5514 -31.25,4.9375 -10.13272,-9.36098 -26.57087,-10.24299 -37.25,-1.3125 -2.95206,2.66331 -5.927,-3.02176 -9.375,-3.625 -10.17436,-5.14885 -22.88324,-2.5514 -31.25,4.9375 -10.13272,-9.36098 -26.57087,-10.24299 -37.25,-1.3125 -2.95206,2.66331 -5.927,-3.02176 -9.375,-3.625 -10.17436,-5.14885 -22.88324,-2.5514 -31.25,4.9375 -10.13271,-9.36098 -26.57086,-10.24299 -37.24999,-1.3125 -2.95206,2.66331 -5.927,-3.02176 -9.375,-3.625 -10.17436,-5.14885 -22.88324,-2.5514 -31.25,4.9375 -10.13271,-9.361 -26.57087,-10.24297 -37.25,-1.3125 -2.95206,2.66331 -5.927002,-3.02176 -9.375002,-3.625 -10.17602,-5.17276 -22.9382,-2.50915 -31.25,4.9375 -9.9823,-9.22124 -26.13106,-10.25638 -36.8125,-1.59375 -3.03687,3.49773 -6.05181,-2.43484 -9.59375,-3.15625 -4.23611,-2.02512 -8.9394297,-3.06381 -13.6874997,-2.84375 z"
       id="path3834" />
  </g>
  <g
     inkscape:groupmode="layer"
     id="layer2"
     inkscape:label="rope"
     style="display:inline">
    <path
       style="font-size:medium;font-style:normal;font-variant:normal;font-weight:normal;font-stretch:normal;text-indent:0;text-align:start;text-decoration:none;line-height:normal;letter-spacing:normal;word-spacing:normal;text-transform:none;direction:ltr;block-progression:tb;writing-mode:lr-tb;text-anchor:start;color:#000000;fill:#ce9e58;fill-opacity:1;stroke:none;stroke-width:9.34670353;marker:none;visibility:visible;display:inline;overflow:visible;enable-background:accumulate;font-family:Bitstream Vera Sans;-inkscape-font-specification:Bitstream Vera Sans"
       d="m 6.3944683,385.53172 c -4.8163,-0.0855 -6.17360995,7.35099 -1.63766,8.97248 4.18562,-0.13015 7.4513997,3.39781 11.5129497,3.0907 4.63778,-0.91726 4.61672,-7.91308 0.20733,-9.22203 -3.05894,-1.74447 -6.5377897,-2.86755 -10.0826197,-2.84115 z m 39.3125097,0 c -11.97572,0.26363 -19.20922,11.23692 -27.1035,18.654 -3.80394,4.88785 -9.6269597,6.41929 -14.9832897,8.27424 -3.73523995,2.94207 -0.35993,8.76331 4.17982,8.14956 12.7755597,-1.15256 19.7861497,-13.36029 28.5975697,-21.03524 4.35832,-5.16824 11.53918,-5.9133 16.84585,-1.90368 4.6269,1.34015 7.87891,-5.48392 3.92372,-8.23357 -3.35777,-2.31315 -7.33868,-3.90172 -11.46017,-3.90531 z m 38.90625,0 c -11.58806,0.0413 -18.79001,10.39619 -26.21809,17.76023 -4.62288,4.96151 -12.30069,11.40454 -18.95001,5.72782 -3.96686,-2.73278 -9.20756,2.71503 -6.32316,6.57305 6.70095,6.88027 18.42341,6.34965 25.50634,0.27425 8.57811,-6.30735 13.96503,-16.8631 24.22058,-20.76547 4.70917,-1.96261 8.45786,4.79056 12.94715,1.93134 3.50489,-2.10682 2.2875,-7.56755 -1.42352,-8.70525 -2.95801,-1.70484 -6.32152,-2.80795 -9.75929,-2.79597 z m 38.937502,0 c -11.5969,0.0436 -18.78552,10.42417 -26.215642,17.79258 -4.64919,5.0542 -12.34794,11.32351 -19.0651,5.69314 -4.16409,-2.43623 -8.99571,3.39241 -5.82959,7.03254 7.12015,6.65977 18.80497,5.63384 25.80156,-0.69576 8.192342,-6.31993 13.555542,-16.47546 23.546352,-20.25299 4.70861,-1.96141 8.45642,4.79094 12.94523,1.93171 3.50506,-2.10699 2.28728,-7.56759 -1.42367,-8.70554 -2.95776,-1.7053 -6.32143,-2.80784 -9.75914,-2.79568 z m 38.9375,0 c -11.5969,0.0436 -18.78551,10.42417 -26.21564,17.79258 -4.64281,5.0394 -12.32941,11.32572 -19.03385,5.69314 -4.16409,-2.43623 -8.99572,3.39241 -5.8296,7.03254 7.10893,6.66473 18.78219,5.62618 25.77032,-0.69576 8.19234,-6.31993 13.55555,-16.47546 23.54635,-20.25299 4.70845,-1.96099 8.45653,4.79082 12.94523,1.93171 3.5049,-2.10682 2.2875,-7.56755 -1.42352,-8.70525 -2.958,-1.70484 -6.32152,-2.80795 -9.75929,-2.79597 z m 38.9375,0 c -11.5969,0.0436 -18.78551,10.42417 -26.21564,17.79258 -4.64288,5.03953 -12.32919,11.32548 -19.03385,5.69314 -4.16409,-2.43623 -8.99571,3.39241 -5.82959,7.03254 7.10921,6.66414 18.78213,5.62646 25.77031,-0.69576 8.19235,-6.31992 13.55554,-16.47547 23.54635,-20.25299 4.7508,-1.98517 8.4336,4.77113 12.97164,2.06431 3.661,-2.08463 2.38797,-7.73877 -1.45008,-8.83814 -2.95776,-1.7053 -6.32143,-2.80784 -9.75914,-2.79568 z m 38.93749,0 c -11.5969,0.0436 -18.78551,10.42417 -26.21564,17.79258 -4.6428,5.03939 -12.3294,11.32572 -19.03384,5.69314 -4.16409,-2.43623 -8.99571,3.39241 -5.82959,7.03254 7.10892,6.66473 18.78218,5.62618 25.7703,-0.69576 8.19234,-6.31992 13.55554,-16.47546 23.54635,-20.25299 4.75065,-1.98474 8.4337,4.771 12.97164,2.06431 3.66084,-2.08447 2.3882,-7.73872 -1.44993,-8.83785 -2.958,-1.70484 -6.32152,-2.80795 -9.75929,-2.79597 z m 38.9375,0 c -11.59354,0.0396 -18.7562,10.4374 -26.18728,17.79258 -4.65532,5.03557 -12.35147,11.32577 -19.06221,5.69314 -4.16409,-2.43623 -8.99571,3.39241 -5.82959,7.03254 7.10922,6.66413 18.78213,5.62646 25.77031,-0.69576 8.19235,-6.31992 13.55554,-16.47547 23.54635,-20.25299 4.719,-1.96673 8.4801,4.78748 12.97648,1.93171 3.50537,-2.10704 2.28718,-7.56911 -1.42501,-8.70554 -2.96821,-1.70599 -6.34245,-2.80613 -9.78905,-2.79568 z m 38.96875,0 c -11.59848,0.0429 -18.78459,10.42704 -26.21853,17.79258 -4.65524,5.03544 -12.35169,11.32601 -19.06221,5.69314 -4.16409,-2.43623 -8.99571,3.39241 -5.82959,7.03254 7.10892,6.66473 18.78218,5.62618 25.77031,-0.69576 8.19503,-6.32777 13.56962,-16.48665 23.57626,-20.25299 4.70904,-1.9615 8.45745,4.79075 12.94657,1.93171 3.50489,-2.10682 2.2875,-7.56755 -1.42352,-8.70525 -2.958,-1.70484 -6.32152,-2.80795 -9.75929,-2.79597 z m 38.9375,0 c -11.5969,0.0436 -18.78551,10.42417 -26.21564,17.79258 -4.64573,5.04814 -12.35323,11.33397 -19.05953,5.68507 -4.10597,-2.51896 -9.05092,3.19864 -5.96633,6.89856 7.07559,6.79678 18.88738,5.83367 25.91564,-0.55371 8.1819,-6.33713 13.55905,-16.48747 23.5621,-20.25299 4.70919,-1.96192 8.45734,4.79088 12.94657,1.93171 3.50506,-2.10699 2.28728,-7.56759 -1.42367,-8.70554 -2.95776,-1.7053 -6.32143,-2.80784 -9.75914,-2.79568 z m 38.9375,0 c -11.5969,0.0436 -18.78551,10.42417 -26.21564,17.79258 -4.64937,5.05449 -12.34732,11.32291 -19.0651,5.69314 -4.16409,-2.43623 -8.99571,3.39241 -5.82959,7.03254 7.12042,6.65901 18.80499,5.63415 25.80156,-0.69576 8.19234,-6.31993 13.55555,-16.47546 23.54635,-20.25299 4.70845,-1.96099 8.45653,4.79082 12.94523,1.93171 3.50489,-2.10682 2.2875,-7.56755 -1.42352,-8.70525 -2.958,-1.70485 -6.32152,-2.80795 -9.75929,-2.79597 z m 38.93751,0 c -11.5969,0.0436 -18.78551,10.42417 -26.21565,17.79258 -4.64288,5.03953 -12.32919,11.32548 -19.03385,5.69314 -4.16409,-2.43623 -8.99571,3.39241 -5.82959,7.03254 7.10922,6.66413 18.78213,5.62647 25.77031,-0.69576 8.19236,-6.31993 13.55555,-16.47546 23.54636,-20.25299 4.70861,-1.96142 8.45642,4.79095 12.94523,1.93171 3.50506,-2.10698 2.28728,-7.56759 -1.42367,-8.70554 -2.95776,-1.7053 -6.32143,-2.80784 -9.75914,-2.79568 z m 38.9375,0 c -11.5969,0.0436 -18.78551,10.42417 -26.21564,17.79258 -4.64281,5.0394 -12.32941,11.32572 -19.03385,5.69314 -4.16409,-2.43623 -8.99571,3.39241 -5.82959,7.03254 7.10892,6.66473 18.78218,5.62618 25.77031,-0.69576 8.19235,-6.31992 13.55554,-16.47547 23.54635,-20.25299 4.70845,-1.96099 8.45653,4.79082 12.94523,1.93171 3.50489,-2.10682 2.2875,-7.56755 -1.42352,-8.70525 -2.958,-1.70484 -6.32152,-2.80795 -9.75929,-2.79597 z m 38.9375,0 c -11.5969,0.0436 -18.78551,10.42417 -26.21564,17.79258 -4.64288,5.03952 -12.32919,11.32548 -19.03385,5.69314 -4.16409,-2.43623 -8.99571,3.39241 -5.82959,7.03254 7.10922,6.66413 18.78213,5.62646 25.77031,-0.69576 8.19235,-6.31992 13.55554,-16.47547 23.54635,-20.25299 4.70861,-1.96142 8.45642,4.79094 12.94523,1.93171 3.50506,-2.10699 2.28728,-7.56759 -1.42367,-8.70554 -2.95776,-1.7053 -6.32143,-2.80784 -9.75914,-2.79568 z m 38.9375,0 c -11.5969,0.0436 -18.78551,10.42417 -26.21564,17.79258 -4.64281,5.0394 -12.32941,11.32572 -19.03385,5.69314 -4.16409,-2.43623 -8.99571,3.39241 -5.82959,7.03254 7.10892,6.66473 18.78218,5.62618 25.77031,-0.69576 8.19234,-6.31993 13.55555,-16.47546 23.54635,-20.25299 4.70845,-1.96099 8.45653,4.79082 12.94523,1.93171 3.50489,-2.10682 2.2875,-7.56755 -1.42352,-8.70525 -2.958,-1.70484 -6.32151,-2.80795 -9.75929,-2.79597 z m 38.9375,0 c -11.5969,0.0436 -18.78551,10.42416 -26.21564,17.79258 -4.64288,5.03953 -12.32919,11.32548 -19.03385,5.69314 -4.16409,-2.43623 -8.99571,3.39241 -5.82959,7.03254 7.10922,6.66413 18.78213,5.62646 25.77031,-0.69576 8.19235,-6.31992 13.55554,-16.47547 23.54635,-20.25299 4.74131,-1.98306 8.37496,4.61432 12.89923,2.0891 3.61382,-1.90512 2.70471,-7.5504 -1.05013,-8.73908 -3.05486,-1.77066 -6.5293,-2.93195 -10.08668,-2.91953 z m 38.9375,0 c -11.29605,0.4522 -18.20997,10.73887 -25.75533,17.75035 -4.86672,4.94659 -12.66625,11.40351 -19.49416,5.73537 -4.16409,-2.43623 -8.99571,3.39241 -5.82959,7.03254 7.16508,6.7119 18.83992,5.5553 25.94669,-0.65179 8.1802,-6.06838 13.56198,-15.656 22.91678,-20.10375 4.78116,-2.52094 8.7009,5.01979 13.2472,1.62282 3.30323,-2.28547 1.86994,-7.42611 -1.69787,-8.58403 -2.81257,-1.68132 -6.02468,-2.8297 -9.33372,-2.80151 z m 38.96875,0 c -11.64778,0.0471 -19.04461,10.30872 -26.70532,17.58443 -4.67909,4.61656 -11.94868,11.66665 -18.47104,5.7811 -4.23646,-2.29271 -8.86426,3.68449 -5.58366,7.21179 6.69423,6.40549 17.65389,5.58038 24.33555,-0.38592 8.46431,-6.55281 14.32052,-16.77498 24.67776,-20.62848 4.68836,-1.92101 8.42547,4.79373 12.89827,1.9383 3.50273,-2.10507 2.2899,-7.56476 -1.41987,-8.70241 -2.9515,-1.69802 -6.30422,-2.79554 -9.73169,-2.79881 z m 38.90625,0 c -11.58311,0.038 -18.76162,10.40657 -26.18684,17.76023 -4.61244,5.02303 -12.28439,11.28075 -18.96941,5.80227 -3.67423,-3.11515 -9.43262,1.78224 -6.94778,5.90895 5.56127,6.43859 16.16525,7.29929 23.24896,2.78384 10.32622,-5.96905 15.74541,-18.31244 27.09074,-22.68541 4.75136,-1.98633 8.43504,4.77071 12.97355,2.06394 3.66084,-2.08447 2.3882,-7.73872 -1.44993,-8.83785 -2.958,-1.70485 -6.32152,-2.80795 -9.75929,-2.79597 z m 38.9375,0 c -11.59354,0.0396 -18.7562,10.4374 -26.18728,17.79258 -4.65506,5.03516 -12.35231,11.32662 -19.06221,5.69314 -4.16409,-2.43623 -8.99571,3.39241 -5.82959,7.03254 7.10865,6.66548 18.78216,5.62587 25.77031,-0.69576 8.19235,-6.31992 13.55554,-16.47547 23.54635,-20.25299 4.71899,-1.96673 8.4801,4.78747 12.97648,1.93171 3.50537,-2.10704 2.28718,-7.56911 -1.42501,-8.70554 -2.96821,-1.70599 -6.34245,-2.80612 -9.78905,-2.79568 z m 38.96875,0 c -11.59848,0.0429 -18.78459,10.42704 -26.21853,17.79258 -4.65526,5.03542 -12.35169,11.32602 -19.06221,5.69314 -4.16409,-2.43623 -8.99571,3.39241 -5.82959,7.03254 7.10891,6.66474 18.78218,5.62618 25.7703,-0.69576 8.19504,-6.32777 13.56962,-16.48665 23.57626,-20.25299 4.70904,-1.9615 8.45746,4.79075 12.94658,1.93171 3.50489,-2.10682 2.2875,-7.56755 -1.42352,-8.70525 -2.958,-1.70484 -6.32152,-2.80795 -9.75929,-2.79597 z m 38.9375,0 c -11.5969,0.0436 -18.78552,10.42416 -26.21564,17.79258 -4.64572,5.04815 -12.35323,11.33397 -19.05953,5.68507 -4.10597,-2.51896 -9.05092,3.19864 -5.96633,6.89856 7.08132,6.80216 18.89524,5.82698 25.93274,-0.55371 8.19234,-6.31992 13.55552,-16.47548 23.54633,-20.25299 4.70862,-1.96142 8.45643,4.79095 12.94524,1.93171 3.50506,-2.10699 2.28728,-7.56759 -1.42367,-8.70554 -2.95776,-1.70531 -6.32143,-2.80784 -9.75914,-2.79568 z m 38.9375,0 c -11.59691,0.0436 -18.78551,10.42417 -26.21565,17.79258 -4.64565,5.04801 -12.35344,11.33422 -19.05952,5.68507 -4.10597,-2.51896 -9.05092,3.19864 -5.96633,6.89856 7.08103,6.80276 18.89528,5.82671 25.93273,-0.55371 8.19234,-6.31993 13.55554,-16.47546 23.54635,-20.25299 4.70845,-1.96099 8.45653,4.79082 12.94523,1.93171 3.50489,-2.10682 2.28751,-7.56755 -1.42351,-8.70525 -2.95801,-1.70483 -6.32152,-2.80795 -9.7593,-2.79597 z m 38.9375,0 c -11.59692,0.0436 -18.78551,10.42417 -26.21565,17.79258 -4.64288,5.03951 -12.32918,11.32548 -19.03384,5.69314 -4.16409,-2.43623 -8.99571,3.39241 -5.82959,7.03254 7.10922,6.66414 18.78213,5.62646 25.77031,-0.69576 8.19235,-6.31991 13.55552,-16.47548 23.54633,-20.25299 4.70862,-1.96142 8.45643,4.79094 12.94525,1.93171 3.50506,-2.10698 2.28728,-7.56758 -1.42366,-8.70554 -2.95776,-1.7053 -6.32144,-2.80784 -9.75915,-2.79568 z m 38.9375,0 c -11.59691,0.0436 -18.78551,10.42417 -26.21565,17.79258 -4.64281,5.03938 -12.3294,11.32573 -19.03384,5.69314 -4.16409,-2.43623 -8.99571,3.39241 -5.82959,7.03254 7.10891,6.66474 18.78218,5.62618 25.7703,-0.69576 8.19235,-6.31992 13.55555,-16.47547 23.54635,-20.25299 4.70846,-1.96099 8.45654,4.79082 12.94524,1.93171 3.50489,-2.10682 2.28751,-7.56755 -1.42351,-8.70525 -2.95801,-1.70484 -6.32152,-2.80795 -9.7593,-2.79597 z m 38.9375,0 c -11.59692,0.0436 -18.78551,10.42417 -26.21565,17.79258 -4.64288,5.03951 -12.32918,11.32548 -19.03384,5.69314 -4.16409,-2.43623 -8.99571,3.39241 -5.82959,7.03254 7.10922,6.66414 18.78213,5.62646 25.77031,-0.69576 8.19236,-6.3199 13.55551,-16.47549 23.54632,-20.25299 4.70862,-1.96143 8.45644,4.79094 12.94526,1.93171 3.5051,-2.10698 2.2873,-7.56759 -1.42366,-8.70553 -2.95777,-1.70528 -6.32143,-2.80784 -9.75915,-2.79569 z m 38.93747,0 c -11.5969,0.0436 -18.7855,10.42418 -26.21562,17.79258 -4.64283,5.03935 -12.32941,11.32574 -19.03384,5.69314 -4.16409,-2.43623 -8.99571,3.39241 -5.82959,7.03254 7.10891,6.66474 18.78217,5.62617 25.77029,-0.69576 8.19236,-6.31992 13.55556,-16.47546 23.54636,-20.25299 3.3423,0.37479 7.3506,-2.03089 6.4775,-5.82783 -0.4055,-2.18102 -2.4983,-3.84222 -4.7151,-3.74168 z m -8.5625,22.9375 c -4.5218,-0.22214 -6.3937,6.51304 -2.4063,8.65625 4.1173,2.38662 11.6762,6.19924 15.2061,1.09865 2.1438,-3.67533 -1.7827,-7.80396 -5.6493,-7.03797 -2.6869,-0.16534 -4.4708,-2.75303 -7.1505,-2.71693 z"
       id="path3752-4"
       sodipodi:nodetypes="cccccccccccccccccccccccccccccccccccccccccccccccccccccccccccccccccccccccccccccccccccccccccccccccccccccccccccccccccccccccccccccccccccccccccccccccccccccccccccccccccccccccccccccccccccccccccccccccccccccccccccccccccccccccccccccccccccccccccccccccccc" />
  </g>
</svg>
